<svg width="140" height="53" viewBox="0 0 140 53" fill="none" xmlns="http://www.w3.org/2000/svg">
<path d="M53.95 0C60.8535 6.18481e-05 66.45 5.59648 66.45 12.5C66.45 17.9216 62.998 22.5361 58.1723 24.2677C57.6991 24.4375 57.3892 24.9076 57.4619 25.405L61.2026 50.995C61.2908 51.5985 60.823 52.1396 60.2131 52.1396H47.6868C47.077 52.1396 46.6092 51.5985 46.6974 50.995L50.4371 25.405C50.5098 24.9075 50.2 24.4375 49.7268 24.2677C44.9014 22.5359 41.45 17.9214 41.45 12.5C41.45 5.59644 47.0464 0 53.95 0Z" fill="white"/>
<path d="M78.45 52.05C77.3454 52.05 76.45 51.1546 76.45 50.05V16.5C76.45 15.3954 77.3454 14.5 78.45 14.5H82.1483C83.2137 14.5 84.0921 15.3352 84.1458 16.3993L84.3022 19.5019C84.3255 19.9642 83.8841 20.3102 83.4408 20.1772C83.1069 20.0771 82.9014 19.7358 83.0119 19.4052C83.3023 18.5368 83.815 17.735 84.55 17C85.45 16.1 86.5833 15.3833 87.95 14.85C89.35 14.2833 90.8167 14 92.35 14C94.6167 14 96.6333 14.6 98.4 15.8C100.167 16.9667 101.55 18.5833 102.55 20.65C103.583 22.6833 104.1 25.05 104.1 27.75C104.1 30.4167 103.583 32.7833 102.55 34.85C101.55 36.9167 100.15 38.55 98.35 39.75C96.5833 40.9167 94.55 41.5 92.25 41.5C90.75 41.5 89.3167 41.2167 87.95 40.65C86.5833 40.0833 85.4333 39.3167 84.5 38.35C83.7677 37.5915 83.2303 36.7817 82.8879 35.9207C82.7285 35.5197 82.9567 35.084 83.3602 34.9313C83.911 34.7229 84.5 35.1298 84.5 35.7187V50.05C84.5 51.1546 83.6046 52.05 82.5 52.05H78.45ZM90.3 34.75C91.5 34.75 92.55 34.4667 93.45 33.9C94.35 33.3 95.05 32.4833 95.55 31.45C96.05 30.4167 96.3 29.1833 96.3 27.75C96.3 26.35 96.05 25.1333 95.55 24.1C95.05 23.0333 94.35 22.2167 93.45 21.65C92.5833 21.05 91.5333 20.75 90.3 20.75C89.0667 20.75 88 21.0333 87.1 21.6C86.2 22.1667 85.5 22.9833 85 24.05C84.5 25.1167 84.25 26.35 84.25 27.75C84.25 29.1833 84.5 30.4167 85 31.45C85.5 32.4833 86.2 33.3 87.1 33.9C88 34.4667 89.0667 34.75 90.3 34.75Z" fill="white"/>
<path d="M18.15 52.2C15.5167 52.2 13.0833 51.7667 10.85 50.9C8.65 50 6.73333 48.75 5.1 47.15C3.46667 45.5167 2.2 43.6 1.3 41.4C0.433333 39.1667 0 36.7167 0 34.05C0 31.45 0.466667 29.05 1.4 26.85C2.33333 24.65 3.61667 22.75 5.25 21.15C6.91667 19.5167 8.86667 18.25 11.1 17.35C13.3667 16.45 15.8333 16 18.5 16C20.1667 16 21.8 16.2167 23.4 16.65C25 17.0833 26.4833 17.7333 27.85 18.6C28.7261 19.1215 29.524 19.7083 30.2434 20.3604C30.9798 21.0277 30.9648 22.1551 30.3109 22.9034L27.6908 25.9014C26.917 26.7867 25.5578 26.8011 24.6204 26.0912C24.417 25.9372 24.2102 25.7902 24 25.65C23.2333 25.0833 22.3833 24.65 21.45 24.35C20.5167 24.05 19.5167 23.9 18.45 23.9C17.1167 23.9 15.85 24.15 14.65 24.65C13.4833 25.1167 12.45 25.8 11.55 26.7C10.6833 27.5667 10 28.6333 9.5 29.9C9 31.1667 8.75 32.5833 8.75 34.15C8.75 35.6833 9 37.0833 9.5 38.35C10 39.5833 10.7 40.65 11.6 41.55C12.5 42.45 13.5833 43.1333 14.85 43.6C16.15 44.0667 17.5833 44.3 19.15 44.3C20.2167 44.3 21.2333 44.15 22.2 43.85C23.1667 43.55 24.05 43.15 24.85 42.65C24.9287 42.5996 25.0066 42.5486 25.0835 42.497C26.1666 41.7711 27.7257 41.9212 28.4213 43.024L30.3459 46.0752C30.822 46.8299 30.7501 47.8232 30.058 48.3864C29.4121 48.9119 28.6594 49.3998 27.8 49.85C26.4333 50.5833 24.9 51.1667 23.2 51.6C21.5333 52 19.85 52.2 18.15 52.2Z" fill="white"/>
<path d="M115.75 52C114.839 52 114.1 51.2613 114.1 50.35V17C114.1 15.8954 114.995 15 116.1 15H119.95C121.055 15 121.95 15.8954 121.95 17V30.4151C121.95 30.6767 121.788 30.9109 121.543 31.0027C121.055 31.1855 120.589 30.734 120.821 30.2681C121.191 29.5279 121.684 28.8385 122.3 28.2C123.267 27.2 124.417 26.4 125.75 25.8C127.083 25.2 128.483 24.9 129.95 24.9C131.95 24.9 133.633 25.3167 135 26.15C136.367 26.95 137.4 28.1667 138.1 29.8C138.8 31.4 139.15 33.3667 139.15 35.7V50C139.15 51.1046 138.255 52 137.15 52H133.1C131.995 52 131.1 51.1046 131.1 50V36.35C131.1 35.2833 130.95 34.4 130.65 33.7C130.35 33 129.883 32.4833 129.25 32.15C128.65 31.7833 127.9 31.6167 127 31.65C126.3 31.65 125.65 31.7667 125.05 32C124.45 32.2 123.933 32.5167 123.5 32.95C123.067 33.35 122.717 33.8167 122.45 34.35C122.217 34.8833 122.1 35.4667 122.1 36.1V50C122.1 51.1046 121.205 52 120.1 52H118.15C117.217 52 116.417 52 115.75 52Z" fill="white"/>
</svg>
